<mxfile host="app.diagrams.net" modified="2023-04-19T18:41:35.180Z" agent="Mozilla/5.0 (X11; Linux x86_64) AppleWebKit/537.36 (KHTML, like Gecko) Chrome/110.0.0.0 Safari/537.36" version="21.1.8" etag="9VGpxMy-OUEKq_PEy_G4" type="github">
  <diagram name="Page-1" id="OCdBPQL0q39ZGa_iiX1m">
    <mxGraphModel>
      <root>
        <mxCell id="0" />
        <mxCell id="1" parent="0" />
      </root>
    </mxGraphModel>
  </diagram>
</mxfile>
